<?xml version="1.0" encoding="UTF-8"?>
<svg width="216px" height="30px" viewBox="0 0 216 30" version="1.1" xmlns="http://www.w3.org/2000/svg" xmlns:xlink="http://www.w3.org/1999/xlink">
    <!-- Generator: Sketch 56.2 (81672) - https://sketch.com -->
    <title>squarelink_logo@1x</title>
    <desc>Created with Sketch.</desc>
    <g id="Symbols" stroke="none" stroke-width="1" fill="none" fill-rule="evenodd">
        <g id="Header-Nav" transform="translate(0.000000, -10.000000)">
            <g id="squarelink_logo">
                <g transform="translate(0.000000, 10.000000)">
                    <g>
                        <g id="Group-8" transform="translate(39.000000, 3.000000)" fill="#3964DF" fill-rule="nonzero">
                            <path d="M0.37781816,19.025645 C0.118598027,18.75918 -0.0254131536,18.6111438 0.233806976,18.1374282 L1.27068747,16.30178 C1.50110536,15.8872788 1.99074338,15.8872788 2.24996351,16.0945293 C2.39397469,16.1833511 4.72695583,17.9301776 6.59910117,17.9301776 C8.09681746,17.9301776 9.22010466,16.9235317 9.22010466,15.650421 C9.22010466,14.1404524 7.98160851,13.1041994 5.56222067,12.0975536 C2.85481047,10.9724789 0.147400264,9.1960452 0.147400264,5.70239226 C0.147400264,3.06734895 2.04834786,0.017804427 6.62790341,0.017804427 C9.56573151,0.017804427 11.812306,1.5573803 12.3883506,2.00148873 C12.676373,2.17913209 12.7627797,2.68245498 12.5611641,2.97852725 L11.4666791,4.66613927 C11.2362612,5.02142601 10.8042277,5.25828383 10.4586008,5.02142601 C10.2281829,4.87338987 8.03921298,3.39302845 6.45508999,3.39302845 C4.81336253,3.39302845 3.9204932,4.51810313 3.9204932,5.46553444 C3.9204932,6.85707417 4.98617594,7.80450548 7.31915708,8.78154401 C10.112974,9.93622592 13.3388245,11.6534452 13.3388245,15.4727776 C13.3388245,18.5223221 10.7754254,21.3350088 6.71431012,21.3350088 C3.08522835,21.3350088 0.953862881,19.5881824 0.37781816,19.025645 Z M15.5853989,10.7060139 C15.5853989,4.78456819 20.1649545,0.017804427 25.9254017,0.017804427 C31.6858489,0.017804427 36.2942066,4.78456819 36.2942066,10.7060139 C36.2942066,14.732597 34.0188301,18.2854643 30.6777707,20.1803269 L34.2780502,26.0129509 C34.5372702,26.4274521 34.2780502,26.9011678 33.8172143,26.9011678 L30.7641774,26.9011678 C30.6489684,26.9011678 30.3897483,26.7827388 30.3033415,26.6050955 L27.2215022,21.2461872 C26.7606665,21.3054016 26.2710285,21.3350088 25.9254017,21.3350088 C20.1649545,21.3350088 15.5853989,16.6274595 15.5853989,10.7060139 Z M19.3296896,10.7060139 C19.3296896,14.4365247 22.2963199,17.4860691 25.9254017,17.4860691 C29.5544834,17.4860691 32.5499159,14.4365247 32.5499159,10.7060139 C32.5499159,6.97550309 29.5544834,3.86674411 25.9254017,3.86674411 C22.2963199,3.86674411 19.3296896,6.97550309 19.3296896,10.7060139 Z M39.8080795,13.193021 L39.8080795,0.876414052 C39.8080795,0.580341763 40.0672997,0.313876714 40.3553221,0.313876714 L43.0915345,0.313876714 C43.408359,0.313876714 43.6387769,0.580341763 43.6387769,0.876414052 L43.6387769,12.9857704 C43.6387769,15.5023848 45.3093066,17.4860691 47.8151012,17.4860691 C50.3208957,17.4860691 52.0202276,15.5023848 52.0202276,13.0153777 L52.0202276,0.876414052 C52.0202276,0.580341763 52.2506455,0.313876714 52.5674701,0.313876714 L55.3036826,0.313876714 C55.5917049,0.313876714 55.8509251,0.580341763 55.8509251,0.876414052 L55.8509251,13.193021 C55.8509251,17.6933197 52.3658545,21.3350088 47.8151012,21.3350088 C43.2931501,21.3350088 39.8080795,17.6933197 39.8080795,13.193021 Z M58.6735442,21.0389365 C58.2415106,21.0389365 58.0110927,20.6540426 58.1839062,20.2691486 L67.1414016,0.343483941 C67.2278084,0.165840563 67.3718195,0.017804427 67.6310396,0.017804427 L67.919062,0.017804427 C68.2070844,0.017804427 68.3222934,0.165840563 68.4087,0.343483941 L77.2797888,20.2691486 C77.4526022,20.6540426 77.2221843,21.0389365 76.7901508,21.0389365 L74.2843562,21.0389365 C73.8523227,21.0389365 73.650707,20.8612931 73.4490914,20.446792 L72.0377818,17.2492114 L63.4259132,17.2492114 L62.0146037,20.446792 C61.8993947,20.7428643 61.6401745,21.0389365 61.1793388,21.0389365 L58.6735442,21.0389365 Z M64.8372227,13.962809 L70.6264722,13.962809 L67.7462486,7.44921873 L67.6598419,7.44921873 L64.8372227,13.962809 Z M79.9007923,20.4763992 L79.9007923,0.876414052 C79.9007923,0.580341763 80.1312102,0.313876714 80.4480347,0.313876714 L88.6854744,0.313876714 C92.1417427,0.313876714 94.9643618,3.15617063 94.9643618,6.6794308 C94.9643618,9.40329581 93.2074254,11.623838 90.7016309,12.6600909 L94.6475372,20.1803269 C94.8491528,20.5652208 94.6475372,21.0389365 94.1578992,21.0389365 L91.1336644,21.0389365 C90.8744443,21.0389365 90.7304331,20.8909005 90.6728286,20.7724715 L86.8421312,12.926556 L83.645083,12.926556 L83.645083,20.4763992 C83.645083,20.7724715 83.3858629,21.0389365 83.0978405,21.0389365 L80.4480347,21.0389365 C80.1312102,21.0389365 79.9007923,20.7724715 79.9007923,20.4763992 Z M83.6738853,9.75858254 L88.3686497,9.75858254 C89.8951683,9.75858254 91.2200711,8.39665004 91.2200711,6.73864526 C91.2200711,5.16946215 89.8951683,3.86674411 88.3686497,3.86674411 L83.6738853,3.86674411 L83.6738853,9.75858254 Z M99.0830816,20.4763992 L99.0830816,0.876414052 C99.0830816,0.580341763 99.3134995,0.313876714 99.6303242,0.313876714 L111.352834,0.313876714 C111.669659,0.313876714 111.900077,0.580341763 111.900077,0.876414052 L111.900077,3.30420677 C111.900077,3.60027906 111.669659,3.86674411 111.352834,3.86674411 L102.827372,3.86674411 L102.827372,8.72232956 L109.941525,8.72232956 C110.229547,8.72232956 110.488767,8.98879461 110.488767,9.2848669 L110.488767,11.7422668 C110.488767,12.0679463 110.229547,12.3048042 109.941525,12.3048042 L102.827372,12.3048042 L102.827372,17.4860691 L111.352834,17.4860691 C111.669659,17.4860691 111.900077,17.7525341 111.900077,18.0486064 L111.900077,20.4763992 C111.900077,20.7724715 111.669659,21.0389365 111.352834,21.0389365 L99.6303242,21.0389365 C99.3134995,21.0389365 99.0830816,20.7724715 99.0830816,20.4763992 Z" id="SQUARELINK"></path>
                        </g>
                        <g id="Group-9" transform="translate(155.000000, 3.000000)" fill="#819CEA" fill-rule="nonzero">
                            <path d="M0.012,20.1403259 L0.012,0.898192592 C0.012,0.607525926 0.240184615,0.345925926 0.553938461,0.345925926 L3.17806154,0.345925926 C3.46329231,0.345925926 3.72,0.607525926 3.72,0.898192592 L3.72,17.2045926 L10.9933846,17.2045926 C11.3071385,17.2045926 11.5353231,17.4661926 11.5353231,17.7568592 L11.5353231,20.1403259 C11.5353231,20.4309926 11.3071385,20.6925926 10.9933846,20.6925926 L0.553938461,20.6925926 C0.240184615,20.6925926 0.012,20.4309926 0.012,20.1403259 Z" id="Path"></path>
                            <path d="M14.4161539,20.1403259 L14.4161539,0.898192592 C14.4161539,0.607525926 14.6728615,0.345925926 14.9580923,0.345925926 L17.6107385,0.345925926 C17.8959692,0.345925926 18.1526769,0.607525926 18.1526769,0.898192592 L18.1526769,20.1403259 C18.1526769,20.4309926 17.8959692,20.6925926 17.6107385,20.6925926 L14.9580923,20.6925926 C14.6728615,20.6925926 14.4161539,20.4309926 14.4161539,20.1403259 Z" id="Path"></path>
                            <path d="M23.3438769,20.1403259 L23.3438769,0.578459259 C23.3438769,0.287792592 23.6005846,0.0552592589 23.8858154,0.0552592589 L24.5988923,0.0552592589 L36.4644923,12.9027259 L36.4930154,12.9027259 L36.4930154,0.898192592 C36.4930154,0.607525926 36.7212,0.345925926 37.0349539,0.345925926 L39.6590769,0.345925926 C39.9443077,0.345925926 40.2010154,0.607525926 40.2010154,0.898192592 L40.2010154,20.4600592 C40.2010154,20.7507259 39.9443077,20.9832592 39.6590769,20.9832592 L38.9745231,20.9832592 L27.0518769,7.64165926 L27.0233539,7.64165926 L27.0233539,20.1403259 C27.0233539,20.4309926 26.7951692,20.6925926 26.4814154,20.6925926 L23.8858154,20.6925926 C23.6005846,20.6925926 23.3438769,20.4309926 23.3438769,20.1403259 Z" id="Path"></path>
                            <path d="M45.3922154,19.9949926 L45.3922154,1.04352592 C45.3922154,0.665659259 45.6774461,0.345925926 46.0767692,0.345925926 L48.5868,0.345925926 C48.9576,0.345925926 49.2713539,0.665659259 49.2713539,1.04352592 L49.2713539,8.89152592 L56.4591692,0.636592592 C56.5732615,0.491259259 56.7444,0.345925926 57.0011077,0.345925926 L59.8534154,0.345925926 C60.3953539,0.345925926 60.6805846,0.956325922 60.3097846,1.39232592 L52.8652615,9.93792592 L60.8517231,19.6752592 C61.1369539,20.0531259 60.9087692,20.6925926 60.3383077,20.6925926 L57.2292923,20.6925926 C56.9440615,20.6925926 56.7729231,20.5763259 56.7158769,20.4891259 L49.2713539,11.1296593 L49.2713539,19.9949926 C49.2713539,20.3728592 48.9576,20.6925926 48.5868,20.6925926 L46.0767692,20.6925926 C45.6774461,20.6925926 45.3922154,20.3728592 45.3922154,19.9949926 Z" id="Path"></path>
                        </g>
                        <path d="M0,0 L22.6956522,0 C26.1774473,0 29,2.7195423 29,6.07426775 L29,21.9257323 C29,25.2804578 26.1774473,28 22.6956522,28 L6.30434783,28 C2.82255266,28 0,25.2804578 0,21.9257323 L0,0 Z M4.09133276,3.52568751 L4.09133276,22.0264634 C4.09133276,23.3683536 5.22035383,24.4561705 6.61307189,24.4561705 L22.4126887,24.4561705 C23.8054068,24.4561705 24.9344278,23.3683536 24.9344278,22.0264634 L24.9344278,5.95539461 C24.9344278,4.61350443 23.8054068,3.52568751 22.4126887,3.52568751 L4.09133276,3.52568751 Z M8.4988789,3.52568751 L12.5632893,3.52568751 L12.5632893,12.506064 L12.5632893,17.6573039 C12.5632893,18.999194 11.4342682,20.087011 10.0415501,20.087011 L4.09133276,20.087011 L4.09133276,16.6718917 L8.4988789,16.6718917 L8.4988789,3.52568751 Z M8.4988789,3.52568751 L12.5632893,3.52568751 L8.4988789,3.52568751 Z M4.09133276,20.087011 L4.09133276,16.6718917 L4.09133276,20.087011 Z M20.5268818,24.4561705 L16.4624714,24.4561705 L16.4624714,15.475794 L16.4624714,10.3245541 C16.4624714,8.98266397 17.5914924,7.89484705 18.9842105,7.89484705 L24.9344278,7.89484705 L24.9344278,11.3099663 L20.5268818,11.3099663 L20.5268818,24.4561705 Z M24.9344278,7.89484705 L24.9344278,11.3099663 L24.9344278,7.89484705 Z M20.5268818,24.4561705 L16.4624714,24.4561705 L20.5268818,24.4561705 Z" id="Icon-Blue" fill="#3964DF" fill-rule="nonzero"></path>
                    </g>
                </g>
            </g>
        </g>
    </g>
</svg>